<?xml version="1.0" encoding="UTF-8"?>
<svg width="1627px" height="583px" viewBox="0 0 1627 583" version="1.1" xmlns="http://www.w3.org/2000/svg" xmlns:xlink="http://www.w3.org/1999/xlink">
    <!-- Generator: Sketch 48.2 (47327) - http://www.bohemiancoding.com/sketch -->
    <title>Artboard 8</title>
    <desc>Created with Sketch.</desc>
    <defs>
        <linearGradient x1="0.0212091953%" y1="49.9625397%" x2="100.032136%" y2="49.9625397%" id="linearGradient-1">
            <stop stop-color="#C48B39" offset="0%"></stop>
            <stop stop-color="#C48B39" offset="100%"></stop>
        </linearGradient>
        <linearGradient x1="0.00455544131%" y1="49.9910634%" x2="99.919809%" y2="49.9910634%" id="linearGradient-2">
            <stop stop-color="#C48B39" offset="0%"></stop>
            <stop stop-color="#C48B39" offset="100%"></stop>
        </linearGradient>
        <linearGradient x1="99.9964535%" y1="49.9766926%" x2="0.00505104782%" y2="49.9766926%" id="linearGradient-3">
            <stop stop-color="#C48B39" offset="0%"></stop>
            <stop stop-color="#C48B39" offset="100%"></stop>
        </linearGradient>
        <linearGradient x1="0.00279449699%" y1="49.9733629%" x2="100.005374%" y2="49.9733629%" id="linearGradient-4">
            <stop stop-color="#C48B39" offset="0%"></stop>
            <stop stop-color="#C48B39" offset="100%"></stop>
        </linearGradient>
    </defs>
    <g id="Page-1" stroke="none" stroke-width="1" fill="none" fill-rule="evenodd">
        <g id="Artboard-8">
            <g id="Group" transform="translate(115.000000, 99.000000)">
                <g id="Group-13">
                    <g id="hikma">
                        <path d="M433.73,299.43 C433.74,299.7 433.72,299.97 433.78,300.22 C434.4,302.87 434.97,305.52 435.33,308.22 C435.77,311.45 436.12,314.7 436.1,317.97 C436.09,319.34 435.9,320.68 435.66,322.02 C435.38,323.61 434.33,324.6 432.91,325.13 C431.72,325.57 430.47,325.76 429.17,325.54 C426.67,325.11 424.2,324.57 421.81,323.7 C416.24,321.68 411.04,318.98 406.31,315.39 C404.65,314.13 403.08,312.75 401.64,311.24 C401.27,310.85 400.86,310.49 400.46,310.12 C400.29,309.96 399.91,310.05 399.75,310.26 C399.64,310.41 399.52,310.55 399.43,310.7 C395.21,317.36 390.84,323.93 386.89,330.75 C386.53,331.37 386.12,331.99 385.65,332.53 C385.3,332.93 384.83,333.24 384.38,333.53 C383.73,333.95 383.03,333.98 382.3,333.68 C380.48,332.95 379.03,331.76 377.95,330.13 C377.1,328.84 376.41,327.46 375.92,325.99 C375.32,324.18 374.9,322.34 374.66,320.44 C374.23,317 374.21,313.58 374.51,310.13 C375.03,304.13 376.43,298.34 378.27,292.64 C379.47,288.93 380.59,285.21 381.54,281.43 C383.54,273.43 384.01,265.33 383.41,257.14 C381.46,241.76 373.95,230.17 360.03,223.01 C355.82,220.85 351.37,219.38 346.71,218.5 C343.23,217.84 339.73,217.43 336.19,217.46 C335.47,217.46 334.74,217.47 334.01,217.46 C327.06,217.36 320.31,218.56 313.68,220.54 C305.84,222.89 298.4,226.17 291.24,230.1 C283.6,234.29 276.29,238.97 269.15,243.97 C259.42,250.78 249.95,257.94 240.46,265.08 C232.71,270.91 225.01,276.81 217.11,282.44 C206.77,289.8 196.2,296.8 185.2,303.14 C176.25,308.3 167.07,313.01 157.51,316.95 C148.04,320.85 138.37,324.11 128.38,326.43 C124.41,327.35 120.43,328.23 116.43,328.92 C113.22,329.47 109.98,329.87 106.75,330.26 C103.59,330.64 100.42,330.66 97.27,331.05 C96.1,331.19 94.92,331.19 93.74,331.2 C90.48,331.23 87.21,331.23 83.95,331.22 C81.77,331.21 79.61,331.13 77.44,330.82 C75.74,330.58 74.02,330.47 72.31,330.24 C67.72,329.62 63.23,328.57 58.81,327.26 C50.02,324.65 41.55,321.26 33.4,317.07 C27.59,314.08 21.97,310.78 16.57,307.11 C11.62,303.75 6.78,300.24 2.1,296.5 C1.6,296.1 1.11,295.7 0.64,295.28 C0.44,295.1 0.3,294.86 0.14,294.65 C-0.12,294.3 0.2,293.71 0.67,293.64 C1.05,293.58 1.41,293.62 1.71,293.83 C2.46,294.34 3.18,294.88 3.91,295.42 C9.42,299.56 15.09,303.47 20.95,307.1 C26.35,310.44 31.97,313.36 37.78,315.92 C45.33,319.25 53.12,321.89 61.12,323.89 C64.63,324.77 68.19,325.4 71.78,325.93 C74.39,326.31 77.02,326.36 79.62,326.76 C85.51,327.02 91.4,327.05 97.29,326.72 C98.92,326.63 100.55,326.5 102.17,326.33 C104.06,326.14 105.96,325.98 107.84,325.67 C110.52,325.23 113.2,324.81 115.87,324.29 C120.75,323.33 125.58,322.13 130.36,320.77 C141.01,317.74 151.23,313.59 161.18,308.77 C168.36,305.29 175.27,301.33 182.09,297.19 C193.41,290.31 204.3,282.81 214.9,274.89 C224.12,268 233.24,260.97 242.38,253.98 C251.45,247.04 260.56,240.16 269.9,233.58 C277.83,227.99 286.03,222.82 294.64,218.35 C301.32,214.88 308.22,211.94 315.44,209.76 C319.34,208.58 323.3,207.69 327.35,207.13 C331.5,206.55 335.66,206.53 339.83,206.58 C342.46,206.62 345.08,206.86 347.67,207.29 C356.82,208.81 365.33,211.93 372.85,217.48 C379.96,222.72 385.14,229.45 388.52,237.59 C390.88,243.27 392.09,249.17 392.18,255.31 C392.22,258.21 392.12,261.1 391.77,263.99 C391.49,266.24 391.21,268.48 390.79,270.71 C390.06,274.55 388.88,278.26 387.48,281.89 C386.34,284.85 385.08,287.76 383.85,290.68 C383.29,292.01 382.67,293.33 382.08,294.65 C380.79,297.56 379.85,300.59 379.31,303.73 C378.83,306.52 378.84,309.33 379.7,312.07 C380.59,314.93 382.13,317.31 384.81,318.84 C385.47,319.22 386.14,319.37 386.88,319.37 C387.66,319.36 388.3,319.1 388.73,318.43 C389.02,317.97 389.33,317.52 389.59,317.05 C391.49,313.63 393,310.06 394.08,306.29 C394.33,305.41 394.5,304.52 394.47,303.61 C394.41,301.8 394.39,299.98 394.19,298.18 C393.48,292.05 393.18,285.9 393.28,279.73 C393.32,276.82 393.54,273.93 393.94,271.06 C394.58,266.48 395.73,262.01 397.32,257.65 C399.77,250.96 403.21,244.82 407.51,239.15 C407.78,238.8 408.11,238.46 408.47,238.22 C408.64,238.1 408.97,238.16 409.22,238.21 C409.44,238.26 409.6,238.69 409.54,238.9 C409.46,239.15 409.41,239.43 409.27,239.65 C408.88,240.26 408.46,240.85 408.05,241.45 C404.14,247.12 401.48,253.32 400.01,260.04 C399.1,264.24 398.93,268.48 399.14,272.75 C399.38,277.61 400.53,282.24 402.55,286.65 C405.19,292.4 409.12,297.03 414.66,300.21 C417.03,301.58 419.54,302.55 422.24,303.08 C423.66,303.36 425.07,303.76 426.53,303.47 C426.64,303.45 426.8,303.16 426.76,303.08 C426.57,302.67 426.36,302.27 426.1,301.91 C424.79,300.13 423.08,298.78 421.25,297.6 C417.79,295.36 414.01,293.91 409.95,293.17 C409.6,293.11 409.24,293.04 408.9,292.92 C408.76,292.87 408.62,292.67 408.57,292.51 C408.49,292.26 408.43,291.98 408.44,291.71 C408.5,289.81 408.58,287.91 408.86,286.02 C409.24,283.42 409.61,280.82 410.18,278.25 C410.38,277.37 410.56,276.48 410.82,275.61 C411.1,274.65 411.55,273.76 412.33,273.08 C412.94,272.55 413.61,272.42 414.35,272.69 C415.13,272.96 415.81,273.42 416.44,273.93 C417.85,275.07 419.3,276.17 420.66,277.36 C423.67,279.98 426.66,282.62 429.61,285.31 C434.7,289.95 439.75,294.64 444.83,299.29 C446.9,301.19 449,303.06 451.29,304.7 C451.95,305.18 452.61,305.64 453.41,305.9 C453.9,306.06 454.33,305.99 454.66,305.66 C455.11,305.22 455.52,304.73 455.87,304.21 C456.77,302.84 457.43,301.34 457.96,299.8 C459.5,295.33 460.59,290.77 460.88,286.02 C461.01,283.94 461.06,281.86 461.07,279.77 C461.13,267.26 461.21,254.75 461.27,242.24 C461.3,236.62 461.3,231 461.31,225.38 C461.33,216.22 461.34,207.07 461.35,197.91 C461.36,192.29 461.38,186.67 461.4,181.05 C461.42,175.88 461.45,170.72 461.48,165.55 C461.52,160.02 461.56,154.49 461.6,148.96 C461.63,143.97 461.67,138.99 461.69,134 C461.73,122.94 461.77,111.88 461.81,100.82 C461.84,92.39 461.87,83.96 461.89,75.53 C461.91,68.1 461.92,60.66 461.94,53.23 C461.96,47.97 461.98,42.71 462.02,37.46 C462.05,33.02 462.11,28.58 462.13,24.14 C462.14,22.94 462.36,21.82 462.81,20.7 C465.03,15.06 467.22,9.4 469.42,3.74 C469.75,2.89 470.05,2.03 470.61,1.31 C470.77,1.11 471.02,0.97 471.23,0.82 C471.39,0.71 471.87,0.87 471.94,1.04 C472.04,1.29 472.19,1.54 472.22,1.8 C472.3,2.7 472.37,3.61 472.37,4.51 C472.39,8.32 472.39,12.13 472.37,15.93 C472.34,20.83 472.48,25.72 472.71,30.61 C472.82,32.87 473.05,35.13 473.35,37.37 C474.04,42.5 475.17,47.53 476.68,52.48 C478.38,58.04 480.6,63.38 483.27,68.54 C485.15,72.16 487.15,75.71 489.3,79.18 C492.97,85.11 496.65,91.04 500.3,96.99 C502.81,101.08 505.26,105.22 507.51,109.46 C510.49,115.07 513.03,120.87 514.81,126.98 C515.98,130.99 516.78,135.08 517.14,139.24 C517.38,142.04 517.34,144.85 517,147.66 C515.96,156.25 513.83,164.56 510.68,172.61 C507.76,180.07 503.86,187.01 499.13,193.48 C493.8,200.76 487.61,207.22 480.76,213.08 C480.49,213.31 480.2,213.55 479.87,213.68 C479.65,213.76 479.36,213.67 479.1,213.61 C478.89,213.56 478.82,213.39 478.87,213.18 C478.99,212.61 479.42,212.26 479.8,211.89 C482.12,209.6 484.49,207.35 486.76,205.01 C492.13,199.46 496.97,193.48 501.1,186.93 C505.73,179.59 509.19,171.75 511.19,163.3 C512.51,157.73 513.2,152.06 512.98,146.32 C512.86,143.05 512.37,139.83 511.61,136.65 C509.98,129.82 507.35,123.38 504.14,117.16 C502.11,113.21 499.89,109.36 497.52,105.61 C494.12,100.25 490.7,94.91 487.29,89.56 C485.05,86.05 482.8,82.54 480.57,79.01 C477.76,74.56 475.14,70.01 472.75,65.32 C472.55,64.92 472.3,64.54 472.05,64.16 C472.02,64.12 471.89,64.13 471.81,64.15 C471.74,64.17 471.63,64.2 471.61,64.26 C471.54,64.42 471.48,64.6 471.46,64.77 C471.43,65.13 471.43,65.49 471.43,65.86 C471.43,66.67 471.43,67.49 471.43,68.31 C471.39,87.26 471.35,106.21 471.31,125.15 C471.28,138.75 471.24,152.35 471.22,165.95 C471.19,191.43 471.18,216.9 471.15,242.38 C471.14,251.08 471.13,259.79 471.05,268.49 C471,274.48 471.23,280.46 471.7,286.42 C472.07,291.21 472.65,295.98 473.79,300.66 C474.18,302.25 474.61,303.82 475.28,305.31 C475.61,306.05 476.01,306.77 476.47,307.44 C476.71,307.8 477.11,308.08 477.48,308.32 C477.79,308.51 478.19,308.53 478.51,308.3 C480.46,306.91 482,305.15 483.21,303.09 C484.45,300.96 485.26,298.66 485.81,296.26 C486.45,293.5 486.53,290.69 486.49,287.88 C486.46,285.34 486.17,282.81 485.7,280.32 C484.7,275.05 483.18,269.94 480.88,265.08 C479.99,263.19 479,261.36 477.88,259.6 C477.51,259.01 477.46,258.42 477.69,257.79 C479.04,254.14 480.4,250.49 481.77,246.84 C482.25,245.57 482.73,244.3 483.24,243.04 C483.29,242.91 483.51,242.78 483.65,242.77 C483.79,242.76 483.98,242.88 484.09,243 C484.27,243.2 484.4,243.45 484.53,243.68 C490.22,254 498.33,262 508.21,268.3 C513.34,271.58 518.81,274.19 524.47,276.4 C530.47,278.73 536.65,280.43 542.92,281.87 C546.01,282.58 549.11,283.21 552.22,283.78 C555.16,284.32 558.12,284.68 561.08,285.1 C563.32,285.41 565.57,285.69 567.81,285.98 C568.35,286.05 568.89,286.09 569.43,286.15 C570.78,286.28 572.13,286.4 573.49,286.53 C573.67,286.55 573.85,286.59 574.03,286.6 C577.74,286.82 581.45,287.05 585.16,287.25 C587.69,287.39 590.23,287.49 592.76,287.6 C594.48,287.67 596.2,287.75 597.92,287.77 C603.99,287.84 610.07,287.89 616.14,287.94 C622.21,287.99 628.29,287.99 634.36,288.07 C640.16,288.15 645.96,288.29 651.76,288.42 C652.66,288.44 653.57,288.52 654.46,288.65 C655.29,288.77 655.55,289.32 655.15,289.99 C655.1,290.07 655.06,290.14 655.01,290.22 C654.91,290.37 654.83,290.53 654.72,290.68 C652.35,294.11 649.86,297.46 647.24,300.7 C646.95,301.05 646.64,301.38 646.36,301.74 C645.94,302.28 645.4,302.54 644.72,302.52 C641.46,302.4 638.2,302.31 634.94,302.19 C632.77,302.11 630.59,301.99 628.42,301.9 C625.07,301.77 621.72,301.65 618.37,301.56 C614.84,301.46 611.3,301.39 607.77,301.34 C602.97,301.26 598.16,301.27 593.36,301.13 C583.3,300.86 573.24,300.87 563.18,300.82 C555.57,300.78 547.95,300.76 540.34,300.68 C536.53,300.64 532.73,300.46 528.92,300.39 C524.66,300.32 520.39,300.16 516.14,300.33 C507.06,300.68 498.42,302.8 490.45,307.33 C487.68,308.9 485.1,310.73 482.76,312.9 C480.54,314.95 478.68,317.26 477.33,319.98 C476.89,320.87 476.41,321.75 475.92,322.61 C475.6,323.17 475.09,323.55 474.49,323.82 C473.69,324.19 472.94,324.19 472.14,323.83 C471.12,323.37 470.31,322.67 469.6,321.83 C468.66,320.71 467.95,319.45 467.3,318.15 C465.88,315.3 464.82,312.31 464.08,309.22 C463.6,307.2 463.24,305.14 462.82,303.1 C462.77,302.83 462.68,302.6 462.43,302.44 C462.22,302.3 461.94,302.48 461.64,302.99 C461.59,303.07 461.54,303.14 461.5,303.22 C459.4,306.82 457.32,310.43 455.2,314.02 C454.74,314.8 454.18,315.51 453.65,316.24 C453.43,316.54 452.71,316.68 452.39,316.51 C451.92,316.25 451.42,316.01 451,315.67 C449.65,314.6 448.3,313.52 447.02,312.38 C442.88,308.7 438.98,304.79 435.27,300.68 C434.8,300.17 434.46,299.6 433.73,299.43 Z M513.94,292.27 C513.73,292.16 513.51,292.01 513.28,291.92 C509.3,290.41 505.49,288.54 501.83,286.39 C498.24,284.28 494.79,281.96 491.66,279.2 C491.46,279.02 491.25,278.84 491.01,278.72 C490.88,278.65 490.65,278.66 490.52,278.73 C490.39,278.8 490.26,279 490.26,279.14 C490.18,281.31 490.16,283.48 490.04,285.64 C489.86,289.08 489.42,292.48 488.59,295.82 C488.24,297.22 487.81,298.6 487.42,299.99 C487.32,300.34 487.22,300.69 487.14,301.04 C487.12,301.11 487.17,301.25 487.22,301.26 C487.37,301.31 487.58,301.39 487.68,301.33 C491.44,298.96 495.45,297.11 499.64,295.65 C503.05,294.46 506.55,293.58 510.14,293.11 C511.39,292.95 512.63,292.72 513.87,292.5 C513.9,292.51 513.91,292.4 513.94,292.27 Z" id="Shape" fill="#BE1E2D"></path>
                        <path d="M227.76,187.46 C226.55,187.61 225.29,187.15 224.12,186.4 C222.97,185.66 221.9,184.83 220.93,183.88 C218.6,181.59 216.3,179.29 213.96,177.01 C212.92,176 211.84,175.04 210.76,174.06 C210.15,173.51 209.42,173.14 208.63,172.9 C208.08,172.73 207.56,172.82 207.06,173.09 C206.49,173.4 206.04,173.83 205.61,174.31 C204.22,175.86 202.87,177.45 201.42,178.95 C200.1,180.32 198.72,181.63 197.31,182.9 C196.51,183.63 195.61,184.26 194.71,184.86 C190.82,187.44 186.74,187.52 182.57,185.62 C180.66,184.75 178.96,183.54 177.41,182.14 C176,180.86 174.65,179.52 173.29,178.19 C172.58,177.49 171.89,176.77 171.23,176.03 C169.95,174.61 168.54,173.34 167.06,172.14 C166.57,171.74 166.09,171.33 165.62,170.9 C165.2,170.51 165.13,169.84 165.45,169.42 C165.72,169.06 166,168.7 166.31,168.38 C168.19,166.39 170.33,164.73 172.65,163.3 C173.42,162.83 174.26,162.49 175.1,162.16 C176.94,161.43 178.66,161.72 180.32,162.62 C181.11,163.05 181.86,163.57 182.55,164.16 C183.79,165.22 184.99,166.32 186.16,167.46 C187.78,169.04 189.34,170.69 190.95,172.27 C191.98,173.28 193.05,174.26 194.15,175.21 C194.63,175.62 195.18,175.97 195.76,176.2 C196.75,176.59 197.74,176.52 198.53,175.74 C199.31,174.98 200.03,174.17 200.77,173.37 C202.38,171.65 203.95,169.9 205.59,168.21 C207.05,166.71 208.69,165.43 210.44,164.29 C212.38,163.03 214.51,162.29 216.84,162.38 C219.13,162.46 221.31,162.98 223.32,164.15 C225.13,165.2 226.82,166.41 228.34,167.85 C229.72,169.16 231.07,170.5 232.38,171.88 C234.37,173.99 236.39,176.06 238.71,177.83 C238.92,177.99 239.11,178.19 239.3,178.38 C239.67,178.76 239.75,179.44 239.45,179.89 C239.25,180.19 239.05,180.5 238.8,180.76 C236.86,182.81 234.66,184.55 232.25,186.01 C231.56,186.43 230.78,186.7 230.05,187.06 C229.41,187.38 228.69,187.43 227.76,187.46 Z" id="Shape" fill="url(#linearGradient-1)"></path>
                        <path d="M478.38,156.1 C478.6,156.21 478.8,156.31 479,156.4 C479.51,156.63 480.05,156.79 480.6,156.9 C481.03,156.99 481.47,157.07 481.91,157.12 C482.41,157.18 482.92,157.22 483.42,157.26 C483.65,157.28 483.88,157.28 484.12,157.29 C484.45,157.3 484.77,157.31 485.1,157.31 C485.69,157.32 486.28,157.27 486.87,157.19 C487.47,157.11 488.06,157.04 488.66,156.96 C489.28,156.87 489.89,156.76 490.5,156.66 C491.18,156.54 491.86,156.43 492.54,156.3 C493.09,156.2 493.64,156.09 494.19,155.99 C494.82,155.87 495.45,155.75 496.09,155.63 C496.88,155.48 497.67,155.32 498.47,155.16 C499.51,154.95 500.55,154.74 501.58,154.51 C502.08,154.4 502.57,154.27 503.07,154.14 C503.11,154.13 503.15,154.11 503.19,154.1 C503.08,153.7 502.85,153.38 502.55,153.12 C502.16,152.79 501.72,152.59 501.24,152.44 C500.68,152.26 500.1,152.16 499.53,152.08 C499.22,152.04 498.9,152.02 498.58,152.01 C498.05,151.99 497.51,151.97 496.98,151.98 C496.64,151.98 496.3,152.03 495.96,152.07 C495.67,152.1 495.38,152.14 495.1,152.18 C494.65,152.25 494.2,152.31 493.76,152.38 C493.29,152.46 492.81,152.54 492.34,152.62 C491.84,152.7 491.34,152.79 490.84,152.86 C490.48,152.92 490.11,152.96 489.74,153 C489.37,153.04 489,153.09 488.63,153.12 C488.08,153.17 487.53,153.17 486.98,153.14 C486.55,153.12 486.13,153.07 485.71,153.03 C485.21,152.98 484.72,152.87 484.25,152.71 C483.8,152.55 483.37,152.35 483.03,152 C482.71,151.67 482.55,151.27 482.54,150.81 C482.53,150.39 482.62,149.98 482.75,149.58 C482.98,148.86 483.3,148.18 483.68,147.52 C483.97,147.01 484.27,146.5 484.58,146.01 C485.03,145.29 485.53,144.61 486.05,143.95 C486.7,143.14 487.39,142.37 488.15,141.66 C489.18,140.69 490.29,139.8 491.48,139.03 C492.25,138.53 493.06,138.09 493.92,137.76 C494.43,137.57 494.94,137.44 495.49,137.39 C495.99,137.35 496.48,137.37 496.97,137.49 C497.23,137.56 497.48,137.66 497.69,137.84 C497.95,138.07 498.08,138.36 498.11,138.7 C498.15,139.06 498.08,139.41 497.98,139.75 C497.81,140.28 497.63,140.8 497.45,141.32 C497.38,141.52 497.27,141.7 497.17,141.89 C497.11,141.99 497.03,142.08 496.95,142.16 C496.84,142.27 496.74,142.28 496.63,142.17 C496.46,142.01 496.29,141.85 496.14,141.68 C495.81,141.31 495.39,141.14 494.9,141.1 C494.45,141.07 494.04,141.21 493.63,141.38 C492.9,141.7 492.2,142.09 491.53,142.51 C490.89,142.92 490.25,143.33 489.62,143.76 C488.92,144.24 488.25,144.75 487.6,145.3 C487.22,145.63 486.84,145.98 486.47,146.32 C486.07,146.68 485.71,147.09 485.36,147.49 C485.2,147.67 485.06,147.87 484.98,148.11 C484.88,148.41 484.96,148.59 485.24,148.76 C485.46,148.89 485.71,148.96 485.95,149.01 C486.32,149.09 486.7,149.13 487.08,149.15 C487.37,149.16 487.66,149.17 487.95,149.18 C488.15,149.19 488.35,149.2 488.55,149.2 C488.9,149.2 489.26,149.19 489.61,149.17 C490.27,149.12 490.93,149.06 491.59,148.99 C492.59,148.89 493.57,148.72 494.56,148.55 C495.39,148.41 496.21,148.28 497.04,148.16 C497.44,148.1 497.83,148.04 498.23,148.02 C498.55,148 498.86,148.03 499.18,148.04 C499.36,148.05 499.55,148.06 499.73,148.07 C500.58,148.15 501.41,148.32 502.19,148.67 C502.95,149.01 503.58,149.5 504.06,150.19 C504.51,150.85 504.7,151.58 504.72,152.37 C504.75,153.55 504.46,154.66 503.99,155.73 C503.78,156.2 503.57,156.66 503.27,157.09 C503.16,157.25 503.02,157.41 502.89,157.55 C502.79,157.66 502.65,157.72 502.51,157.76 C501.44,158.06 500.37,158.37 499.3,158.67 C498.49,158.89 497.68,159.11 496.87,159.31 C495.82,159.57 494.76,159.82 493.7,160.05 C492.91,160.22 492.11,160.36 491.31,160.51 C490.8,160.6 490.29,160.68 489.78,160.76 C489.3,160.83 488.82,160.88 488.34,160.93 C487.95,160.97 487.56,160.99 487.17,161.03 C486.57,161.09 485.98,161.1 485.38,161.08 C484.83,161.06 484.29,161 483.75,160.88 C482.8,160.68 481.93,160.3 481.13,159.77 C480.53,159.37 480.01,158.89 479.55,158.33 C479.12,157.8 478.78,157.22 478.55,156.58 C478.47,156.43 478.43,156.27 478.38,156.1 Z" id="Shape" fill="url(#linearGradient-2)"></path>
                    </g>
                    <g id="Group-6" transform="translate(642.000000, 123.000000)">
                        <text id="HIKMA-ACADEMY" font-family="Athelas-Regular, Athelas" font-size="80" font-weight="normal" letter-spacing="8.66666698" fill="#000000">
                            <tspan x="0" y="70">HIKMA ACADEMY </tspan>
                        </text>
                        <polygon id="Shape" fill="url(#linearGradient-3)" fill-rule="nonzero" points="21 127.5 110.93 132.01 114.05 127.48 111.01 123"></polygon>
                        <polygon id="Shape" fill="url(#linearGradient-4)" fill-rule="nonzero" points="754.04 127.5 664.12 123 661 127.52 664.04 132.01"></polygon>
                    </g>
                </g>
                <text id="Intentional-Islamic" font-family="AvantGarde" font-size="40" font-weight="normal" letter-spacing="2.29999995" fill="#000000">
                    <tspan x="753.770001" y="262"> Intentional Islamic Living</tspan>
                </text>
            </g>
        </g>
    </g>
</svg>